<?xml version="1.0" encoding="utf-8"?>
<!-- Generator: Adobe Illustrator 16.0.0, SVG Export Plug-In . SVG Version: 6.00 Build 0)  -->
<!DOCTYPE svg PUBLIC "-//W3C//DTD SVG 1.1//EN" "http://www.w3.org/Graphics/SVG/1.1/DTD/svg11.dtd">
<svg version="1.1" id="圖層_1" xmlns="http://www.w3.org/2000/svg" xmlns:xlink="http://www.w3.org/1999/xlink" x="0px" y="0px"
	 width="800px" height="400px" viewBox="0 0 800 400" enable-background="new 0 0 800 400" xml:space="preserve">
<polygon fill="#D3AE87" points="292.117,285.858 280.147,287.813 278.059,274.982 290.033,273.032 "/>
<polygon fill="#D3AE87" points="283.176,292.252 271.427,294.169 268.95,278.946 280.701,277.03 "/>
<polygon fill="#D3AE87" points="297.465,275.568 267.699,280.424 265.616,267.594 295.386,262.739 "/>
<rect x="221.947" y="287.308" fill="#E8E0CE" width="24.536" height="16.679"/>
<g>
	<polyline fill="#EAE2D0" points="218.958,291.335 218.958,174.521 249.32,174.521 249.32,303.986 	"/>
	<g>
		<path d="M223.305,290.17c0-38.938,0-77.875,0-116.813c-2.043,1.097-4.085,2.194-6.128,3.291c10.121,0,20.241,0,30.361,0
			c-0.855-0.321-1.71-0.641-2.565-0.962c0,43.155,0,86.31,0,129.465c0,2.109,8.693,0.643,8.693-2.33c0-43.154,0-86.31,0-129.464
			c0-0.95-2.057-0.962-2.565-0.962c-10.121,0-20.241,0-30.361,0c-1.763,0-6.128,0.922-6.128,3.291c0,38.938,0,77.875,0,116.814
			C214.612,294.609,223.305,293.143,223.305,290.17L223.305,290.17z"/>
	</g>
</g>
<g>
	<polyline fill="#B4AC45" points="188.598,285.249 188.598,174.521 218.958,174.521 218.958,303.986 	"/>
	<g>
		<path d="M192.957,284.753c0-36.909,0-73.818,0-110.728c-2.002,1.041-4.005,2.081-6.007,3.121c10.12,0,20.24,0,30.361,0
			c-0.904-0.709-1.808-1.419-2.711-2.128c0,43.155,0,86.31,0,129.465c0,3.87,8.719,2.091,8.719-0.992c0-43.155,0-86.31,0-129.465
			c0-1.504-1.301-2.128-2.711-2.128c-10.12,0-20.24,0-30.361,0c-1.573,0-6.007,0.791-6.007,3.121c0,36.909,0,73.818,0,110.728
			C184.238,289.615,192.957,287.836,192.957,284.753L192.957,284.753z"/>
	</g>
</g>
<g>
	<g>
		<path d="M79.174,304.684H8.132V88.474h68.261c16.882,0,30.161,4.275,39.843,12.818c9.677,8.547,14.52,20.747,14.52,36.602
			c0,9.064-2.47,17.558-7.412,25.484c-4.942,7.93-11.432,13.434-19.459,16.523c-0.209,0.209-0.309,0.416-0.309,0.615v0.314
			c25.528,10.089,38.3,29.857,38.3,59.3c0,16.477-4.225,30.786-12.662,42.938c-4.328,6.587-10.766,11.845-19.306,15.75
			C101.359,302.729,91.112,304.684,79.174,304.684z M13.998,177.122H87.51c9.268,0,17.608-3.399,25.021-10.194
			c8.232-7.206,12.354-17.193,12.354-29.961c0-12.767-4.121-23.059-12.354-30.887c-8.238-7.824-21.108-11.738-38.609-11.738H13.998
			V177.122z M13.998,298.816h64.558c18.531,0,32.741-5.147,42.624-15.444c9.881-10.297,14.826-24.294,14.826-42.001
			c0-17.715-4.996-31.866-14.979-42.476c-9.993-10.604-23.838-15.904-41.545-15.904H13.998V298.816z"/>
		<g>
			<path d="M80.318,303.105c-23.681,0-47.361,0-71.042,0c0.584,0.267,1.169,0.534,1.753,0.802c0-48.287,0-96.574,0-144.862
				c0-23.783,0-47.565,0-71.348c-1.348,0.785-2.695,1.57-4.042,2.355c22.363,0,44.726,0,67.089,0c21.273,0,42.58,7.58,50.649,28.897
				c4.667,12.329,4.147,26.736-1.032,38.76c-2.822,6.551-7.393,12.342-12.986,16.723c-2.664,2.086-5.752,2.991-8.604,4.673
				c-0.944,0.557-1.426,1.436-1.426,2.5c0.103,0.283,0.296,0.479,0.582,0.588c11.299,4.577,21.114,11.478,28.016,21.641
				c7.047,10.378,9.416,23.261,9.692,35.583c0.362,16.148-4.125,31.468-13.227,44.774C115.79,298.736,96.83,302.962,80.318,303.105
				c-2.074,0.018-6.2,3.19-2.289,3.156c12.788-0.11,25.117-2.268,36.585-8.085c10.7-5.428,17.812-14.424,23.029-25.012
				c10.171-20.644,10.189-49.141-1.499-69.194c-4.921-8.444-12.216-14.943-20.573-19.868c-2.292-1.351-4.701-2.496-7.129-3.579
				c-1.51-0.674-3.024,0.374-0.665-0.696c1.128-0.511,2.214-1.117,3.297-1.715c5.252-2.901,9.583-7.249,13.147-12.015
				c14.616-19.544,12.455-50.728-6.305-66.789C101.378,85.148,78.677,86.895,58.35,86.895c-16.358,0-32.716,0-49.074,0
				c-1.347,0-4.042,0.621-4.042,2.355c0,48.287,0,96.575,0,144.861c0,23.783,0,47.566,0,71.349c0,0.679,1.345,0.802,1.753,0.802
				c23.681,0,47.361,0,71.042,0C80.109,306.262,84.231,303.105,80.318,303.105z"/>
			<path d="M12.854,178.701c23.83,0,47.66,0,71.489,0c18.375,0,35.697-10.419,41.542-28.406c3.736-11.496,2.33-25.357-3.357-35.928
				c-5.124-9.523-14.033-15.567-24.18-18.653c-14.335-4.358-30.491-2.951-45.336-2.951c-12.623,0-25.245,0-37.868,0
				c-1.347,0-4.042,0.621-4.042,2.355c0,27.594,0,55.187,0,82.78c0,1.691,5.796,0.625,5.796-1.553c0-27.594,0-55.187,0-82.78
				c-1.348,0.785-2.695,1.57-4.042,2.355c11.645,0,23.29,0,34.935,0c13.878,0,28.596-1.106,42.261,1.631
				c12.28,2.46,22.433,9.575,27.99,20.913c5.694,11.62,5.417,27.227-0.421,38.704c-5.43,10.673-17.267,18.375-29.243,18.375
				c-4.051,0-8.102,0-12.152,0c-20.36,0-40.721,0-61.081,0C13.063,175.543,8.94,178.701,12.854,178.701z"/>
			<path d="M12.854,300.395c23.167,0,46.511,0.907,69.656-0.135c22.694-1.022,43.021-11.903,51.928-33.486
				c9.069-21.975,5.479-51.311-10.715-68.992c-15.516-16.94-38.159-16.368-59.199-16.368c-16.46,0-32.92,0-49.381,0
				c-1.347,0-4.042,0.621-4.042,2.355c0,38.608,0,77.216,0,115.825c0,1.691,5.796,0.624,5.796-1.553c0-38.608,0-77.217,0-115.825
				c-1.348,0.785-2.695,1.57-4.042,2.355c22.392,0,44.793-0.201,67.185,0.017c13.395,0.13,26.365,4.303,36.31,13.437
				c9.273,8.517,14.146,20.43,15.996,32.669c3.904,25.827-5.429,55.211-32.315,63.794c-14.254,4.551-31.34,2.752-46.156,2.752
				c-12.91,0-25.819,0-38.729,0C13.063,297.238,8.94,300.395,12.854,300.395z"/>
		</g>
	</g>
	<g>
		<path d="M303.103,148.396v99.15c0,20.795-6.33,36.093-18.994,45.871c-12.663,9.774-27.851,14.662-45.561,14.662
			c-17.711,0-33.001-4.888-45.866-14.662c-12.872-9.778-19.306-25.076-19.306-45.871v-99.462c0-21.205,5.815-37.265,17.451-48.184
			c11.632-10.909,27.645-16.369,48.03-16.369c20.386,0,36.188,5.767,47.413,17.298C297.491,112.362,303.103,128.217,303.103,148.396
			z M297.237,247.851V147.16c0-17.708-4.945-31.66-14.827-41.853c-9.883-10.195-24.609-15.291-44.17-15.291
			c-19.565,0-34.285,5.205-44.169,15.6c-9.883,10.399-14.823,24.454-14.823,42.162v100.073c0,17.918,5.759,31.46,17.293,40.622
			c11.528,9.163,25.532,13.74,42.008,13.74c16.473,0,30.373-4.32,41.697-12.965C291.569,280.593,297.237,266.801,297.237,247.851z"
			/>
		<g>
			<path d="M300.205,148.757c0,24.678,0,49.356,0,74.034c0,8.93,0.06,17.861-0.014,26.79c-0.101,12.206-2.808,24.538-9.9,34.634
				c-7.493,10.665-20.364,17.108-32.7,20.21c-25.145,6.322-57.622-0.934-72.71-23.398c-8.42-12.538-8.605-27.827-8.605-42.35
				c0-28.219,0-56.437,0-84.656c0-9.973,0.286-19.827,2.868-29.552c5.127-19.315,20.068-32.487,39.201-37.222
				c19.795-4.9,43.847-2.483,60.295,10.247c15.914,12.316,21.412,32.365,21.566,51.678c0.015,1.826,5.814,0.708,5.796-1.553
				c-0.192-23.997-9.254-46.872-31.376-58.434c-20.584-10.758-49.312-9.7-70.169-0.385c-21.61,9.651-32.154,30.11-33.773,52.947
				c-0.681,9.608-0.204,19.402-0.204,29.021c0,25.643,0,51.286,0,76.929c0,10.162,1.427,20.208,5.64,29.522
				c4.55,10.059,12.627,17.236,22.001,22.728c21.43,12.554,50.146,12.767,72.703,3.226c10.038-4.246,19.307-10.917,25.601-19.877
				c6.683-9.512,9.035-21.386,9.522-32.789c0.391-9.162,0.055-18.398,0.055-27.563c0-24.966,0-49.932,0-74.897
				c0-0.004,0-0.009,0-0.013C306.001,145.601,300.205,146.852,300.205,148.757z"/>
			<path d="M300.135,247.489c0-24.467,0-48.934,0-73.4c0-9.08,0-18.159,0-27.239c0-22.222-8.934-43.477-30.091-52.949
				c-11.068-4.955-23.783-5.898-35.745-5.413c-11.186,0.454-22.236,2.956-32.052,8.437c-18.508,10.335-25.898,31.508-25.898,51.675
				c0,26.082,0,52.164,0,78.246c0,7.121,0,14.243,0,21.365c0,10.087,1.701,20.476,6.96,29.242
				c5.543,9.238,14.069,15.74,23.734,20.268c19.931,9.336,45.854,8.12,65.373-1.603c8.289-4.129,15.513-9.975,20.403-17.891
				C298.465,269.093,300.042,258.031,300.135,247.489c0.021-2.429-5.779-1.189-5.796,0.723c-0.107,12.1-2.292,24.167-9.739,34.008
				c-8.172,10.799-22.461,16.085-35.422,17.786c-26.216,3.442-56.222-7.632-64.603-34.62c-3.396-10.937-2.43-23.134-2.43-34.475
				c0-15.579,0-31.157,0-46.736c0-29.12-5.565-68.094,23.702-85.518c11.649-6.935,26.422-7.631,39.583-6.661
				c12.281,0.906,24.357,5.008,33.404,13.56c12.937,12.228,15.504,29.825,15.504,46.735c0,31.974,0,63.946,0,95.92
				C294.339,250.646,300.135,249.395,300.135,247.489z"/>
		</g>
	</g>
	<g>
		<path d="M469.588,148.396v99.15c0,20.795-6.33,36.093-18.992,45.871c-12.667,9.774-27.854,14.662-45.561,14.662
			c-17.712,0-33.004-4.888-45.871-14.662c-12.87-9.778-19.304-25.076-19.304-45.871v-99.462c0-21.205,5.816-37.265,17.452-48.184
			c11.633-10.909,27.644-16.369,48.027-16.369c20.389,0,36.187,5.767,47.414,17.298
			C463.979,112.362,469.588,128.217,469.588,148.396z M463.72,247.851V147.16c0-17.708-4.941-31.66-14.826-41.853
			c-9.887-10.195-24.609-15.291-44.171-15.291c-19.561,0-34.286,5.205-44.166,15.6c-9.885,10.399-14.828,24.454-14.828,42.162
			v100.073c0,17.918,5.764,31.46,17.296,40.622c11.531,9.163,25.532,13.74,42.01,13.74c16.471,0,30.37-4.32,41.695-12.965
			C458.055,280.593,463.72,266.801,463.72,247.851z"/>
		<g>
			<path d="M466.669,148.679c0,24.678,0,49.356,0,74.034c0,8.93,0.06,17.861-0.014,26.79c-0.102,12.216-2.825,24.464-9.92,34.563
				c-7.454,10.612-20.498,16.986-32.74,20.064c-25.085,6.309-57.57-0.724-72.652-23.183c-8.398-12.506-8.563-27.71-8.563-42.192
				c0-28.219,0-56.437,0-84.656c0-9.973,0.287-19.827,2.868-29.551c5.121-19.289,20.212-32.292,39.259-37.006
				c19.156-4.742,42.07-2.663,58.514,8.769C460.391,108.107,466.511,128.938,466.669,148.679c0.022,2.794,5.856,1.721,5.838-0.566
				c-0.189-23.682-8.658-46.478-30.239-58.448c-20.419-11.326-48.998-10.569-70.117-1.722c-21.733,9.104-32.895,29.403-34.891,52.11
				c-0.864,9.835-0.318,19.944-0.318,29.798c0,25.885,0,51.77,0,77.654c0,9.77,1.303,19.45,5.111,28.501
				c4.277,10.166,12.002,17.613,21.261,23.313c21.263,13.092,49.798,13.808,72.661,4.734c10.239-4.063,19.638-10.716,26.238-19.561
				c6.881-9.222,9.485-21.012,10.168-32.28c0.569-9.392,0.125-18.924,0.125-28.322c0-25.242,0-50.483,0-75.725
				c0-0.018,0-0.035,0-0.053C472.507,145.321,466.669,146.388,466.669,148.679z"/>
			<path d="M466.639,247.567c0-24.467,0-48.934,0-73.4c0-9.08,0-18.159,0-27.238c0-22.239-8.961-43.688-30.153-53.177
				c-10.876-4.869-23.078-5.859-34.847-5.577c-11.301,0.271-23.169,2.659-32.975,8.496c-18.341,10.919-25.854,31.273-25.854,51.852
				c0,26.082,0,52.164,0,78.245c0,7.122,0,14.244,0,21.366c0,10.325,1.943,20.332,7.005,29.398
				c5.187,9.288,14.294,15.907,23.754,20.339c20.003,9.369,45.789,8.305,65.407-1.468
				C458.439,286.709,466.452,268.645,466.639,247.567c0.024-2.788-5.817-1.73-5.838,0.566c-0.108,12.216-2.307,24.688-10.177,34.425
				c-8.363,10.349-22.239,15.482-35.037,17.163c-26.125,3.431-56.147-7.354-64.528-34.336c-3.385-10.897-2.411-23.09-2.411-34.396
				c0-15.578,0-31.157,0-46.735c0-29.025-5.688-68.899,24.242-85.614c11.694-6.53,26.025-7.353,39.091-6.388
				c12.224,0.902,24.33,4.853,33.357,13.383c12.915,12.204,15.462,29.699,15.462,46.579c0,31.973,0,63.946,0,95.92
				C460.801,250.926,466.639,249.859,466.639,247.567z"/>
		</g>
	</g>
	<g>
		<path d="M636.998,304.684h-6.487L550.203,180.21l-29.959,37.988v86.485h-5.867V88.165h5.867v121.387L614.14,88.165h6.795
			l-67.027,87.414L636.998,304.684z"/>
		<g>
			<path d="M638.192,303.291c-2.162,0-4.325,0-6.487,0c0.568,0.205,1.136,0.411,1.703,0.616
				c-25.974-40.258-51.947-80.516-77.921-120.774c-0.795-1.233-1.591-2.466-2.387-3.699c-0.98-1.52-4.657-0.278-5.557,0.862
				c-7.637,9.684-15.273,19.368-22.911,29.052c-1.737,2.202-3.475,4.405-5.212,6.608c-0.555,0.703-2.074,2.023-2.074,3.019
				c0,2.788,0,5.577,0,8.365c0,25.915,0,51.831,0,77.746c0,0.125,0,0.249,0,0.374c1.364-0.723,2.728-1.446,4.092-2.169
				c-1.956,0-3.911,0-5.867,0c0.568,0.205,1.136,0.411,1.703,0.616c0-48.356,0-96.713,0-145.069c0-23.817,0-47.633,0-71.45
				c-1.364,0.723-2.728,1.446-4.092,2.169c1.956,0,3.911,0,5.867,0c-0.568-0.206-1.136-0.411-1.703-0.616
				c0,40.462,0,80.925,0,121.387c0,1.699,5.012-0.157,5.557-0.862c29.759-38.472,59.518-76.943,89.276-115.416
				c1.539-1.99,3.079-3.981,4.619-5.971c-1.285,0.493-2.569,0.985-3.854,1.478c2.265,0,4.529,0,6.795,0
				c-0.488-0.436-0.977-0.872-1.465-1.307c-22.342,29.138-44.685,58.276-67.027,87.414c-0.195,0.194-0.274,0.424-0.238,0.691
				c26.334,40.918,52.669,81.835,79.003,122.753c1.362,2.117,2.725,4.234,4.088,6.352c1.071,1.665,6.491-0.472,5.795-1.553
				c-26.334-40.918-52.669-81.836-79.003-122.754c-1.288-2.001-2.575-4.002-3.863-6.003c-0.45-0.699-0.729,0.689-0.207,0.008
				c0.726-0.946,1.451-1.893,2.177-2.839c7.365-9.605,14.729-19.21,22.095-28.814c14.166-18.476,28.333-36.951,42.5-55.426
				c0.819-1.07-0.702-1.307-1.465-1.307c-3.227,0-8.69-1.053-10.979,1.905c-1.623,2.099-3.247,4.198-4.871,6.297
				c-7.484,9.676-14.969,19.352-22.453,29.028c-18.588,24.03-37.176,48.06-55.764,72.089c-3.492,4.515-6.984,9.03-10.478,13.546
				c1.853-0.288,3.705-0.575,5.557-0.862c0-40.462,0-80.925,0-121.387c0-0.625-1.375-0.616-1.703-0.616c-1.956,0-3.911,0-5.867,0
				c-1.148,0-4.092,0.615-4.092,2.169c0,48.356,0,96.712,0,145.069c0,23.816,0,47.634,0,71.45c0,0.625,1.375,0.616,1.703,0.616
				c1.956,0,3.911,0,5.867,0c1.148,0,4.092-0.615,4.092-2.169c0-24.932,0-49.862,0-74.794c0-3.772,0-7.545,0-11.317
				c0-0.777-0.165,0.224-0.173,0.232c0.312-0.395,0.623-0.789,0.935-1.185c1.671-2.118,3.341-4.235,5.011-6.354
				c7.961-10.094,15.921-20.188,23.882-30.281c0.021-0.028,0.044-0.056,0.066-0.084c-1.853,0.287-3.705,0.575-5.557,0.862
				c25.974,40.258,51.947,80.516,77.921,120.774c0.756,1.172,1.512,2.343,2.268,3.515c1.163,1.803,6.473,0.801,8.31,0.801
				S642.082,303.291,638.192,303.291z"/>
		</g>
	</g>
	<g>
		<path d="M761.161,306.851l-1.855-5.563c1.855,0,3.656-0.509,5.407-1.541c1.748-1.032,3.555-2.011,5.404-2.943
			c1.853-0.923,3.288-1.846,4.33-2.775c1.022-0.923,2.314-2.207,3.855-3.858c1.545-1.644,2.781-3.45,3.704-5.405
			c0.933-1.957,1.901-4.172,2.938-6.643c1.644-4.945,2.475-11.735,2.475-20.383v-58.688c-6.181,10.915-15.136,18.638-26.876,23.168
			c-11.736,4.521-22.857,6.791-33.358,6.791c-21.828,0-39.077-5.407-51.734-16.212c-12.668-10.813-18.999-26.819-18.999-48.034
			V88.474h5.874v74.751c0,19.145,5.347,33.923,16.058,44.317c10.703,10.397,26.974,15.601,48.802,15.601
			c16.468,0,30.162-4.17,41.083-12.512c10.909-8.339,17.296-18.681,19.151-31.039V88.474h5.863v171.115
			C793.282,285.741,782.575,301.492,761.161,306.851z"/>
		<g>
			<path d="M764.059,306.074c-0.618-1.854-1.236-3.708-1.855-5.563c-1.095,0.804-2.189,1.607-3.285,2.411
				c6.158-0.426,13.152-4.567,17.859-8.396c5.841-4.751,9.744-11.804,11.722-18.991c2.4-8.729,1.819-18.145,1.819-27.136
				c0-16.567,0-33.135,0-49.703c0-2.472-4.799-1.099-5.602,0.278c-15.3,26.23-49.308,31.852-77.075,26.438
				c-12.092-2.357-23.517-7.799-32.385-16.414c-8.462-8.22-12.896-19.367-14.843-30.813c-2.032-11.952-1.063-24.795-1.063-36.871
				c0-15.087,0-30.175,0-45.262c0-2.645,0-5.29,0-7.935c-1.34,0.675-2.68,1.351-4.02,2.026c1.958,0,3.916,0,5.874,0
				c-0.593-0.438-1.187-0.877-1.779-1.316c0,24.003,0,48.007,0,72.011c0,18.448,3.743,36.688,18.053,49.486
				c16.869,15.087,45.52,17.305,66.686,12.703c21.179-4.604,40.566-18.979,45.622-40.864c1.823-7.891,0.532-17.073,0.532-25.086
				c0-22.986,0-45.973,0-68.959c-1.34,0.675-2.68,1.351-4.02,2.026c1.955,0,3.909,0,5.863,0c-0.593-0.438-1.187-0.877-1.779-1.316
				c0,49.866,0,99.731,0,149.597c0,7.081,0,14.162,0,21.242c0,9.182-1.214,18.52-5.249,26.859
				c-4.829,9.981-13.853,16.083-24.37,18.842c-3.491,0.916-2.69,3.877,0.795,2.963c8.783-2.304,17.238-6.386,23.312-13.311
				c6.649-7.581,9.719-17.102,10.867-26.989c0.844-7.264,0.444-14.825,0.444-22.128c0-29.211,0-58.422,0-87.633
				c0-23.384,0-46.768,0-70.152c0-0.989-0.875-1.316-1.779-1.316c-1.955,0-3.909,0-5.863,0c-0.994,0-4.02,0.537-4.02,2.026
				c0,24.923,0,49.847,0,74.77c0,4.791,0,9.583,0,14.374c0,7.271-3.237,14.456-7.182,20.41
				c-16.156,24.389-50.517,27.125-76.295,19.471c-19.178-5.694-31.063-21.477-34.627-40.714c-1.744-9.419-1.191-19.309-1.191-28.857
				c0-20.054,0-40.108,0-60.163c0-0.989-0.875-1.316-1.779-1.316c-1.958,0-3.916,0-5.874,0c-0.994,0-4.02,0.537-4.02,2.026
				c0,24.245,0,48.49,0,72.736c0,17.344,2.71,34.392,14.538,47.839c15.795,17.956,42.701,22.71,65.422,20.94
				c22.363-1.741,44.989-11.291,56.609-31.215c-1.867,0.093-3.734,0.185-5.602,0.278c0,14.972,0,29.944,0,44.917
				c0,5.786,0.073,11.578-0.051,17.363c-0.159,7.364-1.25,14.219-4.224,20.961c-1.923,4.36-4.654,7.651-8.128,10.883
				c-2.722,2.531-8.829,5.874-12.424,6.123c-0.906,0.063-3.761,0.986-3.285,2.411c0.618,1.854,1.236,3.708,1.855,5.563
				C758.956,309.704,764.72,308.055,764.059,306.074z"/>
		</g>
	</g>
</g>
<g>
	<polyline fill="#D8B28A" points="269.735,297.736 255.77,191.186 283.216,186.181 293.602,265.463 	"/>
	<g>
		<path d="M274.082,296.571c-4.655-35.517-9.31-71.033-13.965-106.55c-1.67,1.101-3.341,2.203-5.012,3.304
			c9.149-1.668,18.298-3.336,27.447-5.005c-1.227-0.325-2.455-0.65-3.682-0.975c3.462,26.428,6.924,52.854,10.386,79.282
			c0.333,2.536,9.079,0.612,8.693-2.33c-3.462-26.427-6.924-52.854-10.386-79.281c-0.171-1.31-2.896-1.118-3.682-0.975
			c-9.149,1.668-18.298,3.336-27.447,5.005c-1.44,0.263-5.293,1.157-5.012,3.304c4.655,35.517,9.31,71.033,13.965,106.551
			C265.721,301.438,274.467,299.513,274.082,296.571L274.082,296.571z"/>
	</g>
</g>
<rect x="264.655" y="189.264" transform="matrix(0.9882 -0.1531 0.1531 0.9882 -31.8923 44.807)" fill="#D3AE87" width="20.574" height="80.37"/>
</svg>
