<?xml version="1.0"?>
<svg xmlns="http://www.w3.org/2000/svg" height="512px" viewBox="0 0 512 512" width="512px" class=""><g><path d="m507.3125 116.6875-112-112c-3-3-7.070312-4.6875-11.3125-4.6875h-368c-8.835938 0-16 7.164062-16 16v480c0 8.835938 7.164062 16 16 16h480c8.835938 0 16-7.164062 16-16v-368c0-4.242188-1.6875-8.3125-4.6875-11.3125zm-219.3125-84.6875v64h-160v-64zm-160 448v-192h256v192zm352 0h-64v-208c0-8.835938-7.164062-16-16-16h-288c-8.835938 0-16 7.164062-16 16v208h-64v-448h64v80c0 8.835938 7.164062 16 16 16h192c8.835938 0 16-7.164062 16-16v-80h57.375l102.625 102.625zm0 0" data-original="#000000" class="active-path" data-old_color="#000000" fill="#FFFFFF"/></g> </svg>
