<?xml version="1.0"?>
<svg xmlns="http://www.w3.org/2000/svg" xmlns:xlink="http://www.w3.org/1999/xlink" version="1.1" id="Layer_1" x="0px" y="0px" viewBox="0 0 508 508" style="enable-background:new 0 0 508 508;" xml:space="preserve" width="512px" height="512px" class=""><g><circle style="fill:#FFFFFF" cx="254" cy="254" r="254" data-original="#FFD05B" class="active-path" data-old_color="#ffffff"/><path style="fill:#FFFFFF;" d="M432.4,379.5H75.6c-1.5,0-2.8-1.2-2.8-2.8V131.3c0-1.5,1.2-2.8,2.8-2.8h356.7c1.5,0,2.8,1.2,2.8,2.8  v245.4C435.1,378.2,433.9,379.5,432.4,379.5z" data-original="#FFFFFF" class=""/><g>
	<rect x="95" y="145.8" style="fill:#324A5E" width="20.7" height="216.3" data-original="#324A5E" class=""/>
	<rect x="392.2" y="145.8" style="fill:#324A5E" width="20.7" height="216.3" data-original="#324A5E" class=""/>
	<rect x="128.6" y="145.8" style="fill:#324A5E" width="13.7" height="170.6" data-original="#324A5E" class=""/>
	<rect x="150.8" y="145.8" style="fill:#324A5E" width="13.7" height="170.6" data-original="#324A5E" class=""/>
	<rect x="173" y="145.8" style="fill:#324A5E" width="13.7" height="170.6" data-original="#324A5E" class=""/>
	<rect x="198.8" y="145.8" style="fill:#324A5E" width="22.1" height="170.6" data-original="#324A5E" class=""/>
	<rect x="234.6" y="145.8" style="fill:#324A5E" width="22.1" height="170.6" data-original="#324A5E" class=""/>
	<rect x="270.4" y="145.8" style="fill:#324A5E" width="22.1" height="170.6" data-original="#324A5E" class=""/>
	<rect x="303.4" y="145.8" style="fill:#324A5E" width="6.8" height="170.6" data-original="#324A5E" class=""/>
	<rect x="314.4" y="145.8" style="fill:#324A5E" width="6.8" height="170.6" data-original="#324A5E" class=""/>
	<rect x="325.4" y="145.8" style="fill:#324A5E" width="6.8" height="170.6" data-original="#324A5E" class=""/>
	<rect x="338.1" y="145.8" style="fill:#324A5E" width="11" height="170.6" data-original="#324A5E" class=""/>
	<rect x="355.9" y="145.8" style="fill:#324A5E" width="11" height="170.6" data-original="#324A5E" class=""/>
	<rect x="373.6" y="145.8" style="fill:#324A5E" width="11" height="170.6" data-original="#324A5E" class=""/>
	<path style="fill:#324A5E" d="M128.5,339.8v-5.2h16.6v4.2l-5.6,6.3c2.2,0.4,3.9,1.3,5.1,2.7c1.2,1.5,1.8,3.2,1.8,5.1   c0,2.9-1,5.1-2.9,6.7s-4.4,2.4-7.4,2.4s-6.1-1.1-9.1-3.2l2.5-4.8c2.6,1.8,4.9,2.7,6.9,2.7c1.2,0,2.2-0.3,3-0.9s1.2-1.5,1.2-2.6   s-0.5-2-1.4-2.7s-2.2-1-3.8-1c-0.9,0-2.1,0.2-3.6,0.7V346l5.2-6.1h-8.5V339.8z" data-original="#324A5E" class=""/>
	<path style="fill:#324A5E" d="M170,345.3c0.7-1,1-1.9,1-2.8s-0.3-1.7-0.9-2.3c-0.6-0.6-1.4-0.9-2.3-0.9c-1.7,0-3.3,1.2-4.9,3.7   l-4.9-2.9c1.3-2,2.7-3.5,4.2-4.5s3.4-1.5,5.8-1.5c2.3,0,4.4,0.7,6.2,2.2s2.7,3.5,2.7,6.1c0,1.4-0.4,2.7-1.1,4   c-0.7,1.3-2,2.9-3.9,4.9l-4.9,5.1h10.7v5.4h-19.2v-4.5l8-8.2C168.2,347.5,169.3,346.2,170,345.3z" data-original="#324A5E" class=""/>
	<path style="fill:#324A5E" d="M188.8,334.7h11v27.2H194v-22h-5.2V334.7z" data-original="#324A5E" class=""/>
	<path style="fill:#324A5E" d="M224.8,339.3c-1.7,0-3,0.6-3.9,1.7s-1.5,2.7-1.7,4.6c1.7-1.1,3.5-1.6,5.4-1.6c2.5,0,4.7,0.8,6.4,2.5   s2.5,3.9,2.5,6.6c0,2.8-0.9,5-2.7,6.6c-1.8,1.7-4.1,2.5-6.9,2.5c-1.9,0-3.6-0.4-5-1.1s-2.5-1.8-3.3-3.1c-1.6-2.6-2.3-5.8-2.3-9.6   c0-2.5,0.3-4.7,0.9-6.5c0.6-1.9,1.4-3.4,2.5-4.5c2.1-2.2,4.6-3.3,7.7-3.3c1.3,0,2.5,0.2,3.6,0.6c1.2,0.4,2,0.8,2.7,1.1   c0.6,0.4,1.3,0.9,2.1,1.5l-2.9,4.3c-0.2-0.2-0.4-0.4-0.7-0.6c-0.3-0.3-0.9-0.6-1.8-1C226.5,339.5,225.6,339.3,224.8,339.3z    M224,349.1c-1.2,0-2.2,0.4-3,1.1s-1.2,1.6-1.2,2.8c0,1.1,0.4,2.1,1.2,2.9s1.7,1.2,2.9,1.2s2.1-0.4,2.9-1.1   c0.8-0.7,1.2-1.7,1.2-2.8c0-1.2-0.4-2.1-1.1-2.9C226.2,349.5,225.2,349.1,224,349.1z" data-original="#324A5E" class=""/>
	<path style="fill:#324A5E" d="M263,334.7v5.2h-10.7v4.5c0.8-0.2,1.7-0.3,2.8-0.3c2.6,0,4.9,0.8,6.8,2.4s2.8,3.7,2.8,6.4   s-1,4.9-2.9,6.6c-2,1.7-4.4,2.6-7.2,2.6c-3.7,0-6.8-1.4-9.2-4.1l3.2-4.4c0.2,0.2,0.5,0.5,0.9,0.9c0.4,0.3,1.1,0.8,2.1,1.3   c1,0.6,2.1,0.8,3.1,0.8s2-0.3,2.8-0.9s1.2-1.5,1.2-2.8c0-1.2-0.4-2.2-1.3-2.8c-0.9-0.7-2-1-3.4-1s-3,0.5-4.8,1.5l-2.5-2.7v-13.3   H263V334.7z" data-original="#324A5E" class=""/>
	<path style="fill:#324A5E" d="M286.6,350.1v-4.7h5.8v4.7h3.1v5.2h-3.1v6.5h-5.8v-6.5h-10.9v-4.6l9.7-16.1h6.6l-9.2,15.4h3.8V350.1   z" data-original="#324A5E" class=""/>
	<path style="fill:#324A5E" d="M307.8,339.8v-5.2h16.6v4.2l-5.6,6.3c2.2,0.4,3.9,1.3,5.1,2.7c1.2,1.5,1.8,3.2,1.8,5.1   c0,2.9-1,5.1-2.9,6.7s-4.4,2.4-7.4,2.4s-6.1-1.1-9.1-3.2l2.5-4.8c2.6,1.8,4.9,2.7,6.9,2.7c1.2,0,2.2-0.3,3-0.9s1.2-1.5,1.2-2.6   s-0.5-2-1.4-2.7s-2.2-1-3.8-1c-0.9,0-2.1,0.2-3.6,0.7V346l5.2-6.1h-8.5V339.8z" data-original="#324A5E" class=""/>
	<path style="fill:#324A5E" d="M349.3,345.3c0.7-1,1-1.9,1-2.8s-0.3-1.7-0.9-2.3c-0.6-0.6-1.4-0.9-2.3-0.9c-1.7,0-3.3,1.2-4.9,3.7   l-4.9-2.9c1.3-2,2.7-3.5,4.2-4.5s3.4-1.5,5.8-1.5c2.3,0,4.4,0.7,6.2,2.2c1.8,1.5,2.7,3.5,2.7,6.1c0,1.4-0.4,2.7-1.1,4   s-2,2.9-3.9,4.9l-4.9,5.1H357v5.4h-19.2v-4.5l8-8.2C347.5,347.5,348.6,346.2,349.3,345.3z" data-original="#324A5E" class=""/>
	<path style="fill:#324A5E" d="M368.1,334.7h11v27.2h-5.8v-22h-5.2V334.7z" data-original="#324A5E" class=""/>
</g></g> </svg>
