<?xml version="1.0" encoding="utf-8"?>
<!-- Generator: Adobe Illustrator 16.0.0, SVG Export Plug-In . SVG Version: 6.00 Build 0)  -->
<!DOCTYPE svg PUBLIC "-//W3C//DTD SVG 1.1//EN" "http://www.w3.org/Graphics/SVG/1.1/DTD/svg11.dtd">
<svg version="1.1" id="圖層_1" xmlns="http://www.w3.org/2000/svg" xmlns:xlink="http://www.w3.org/1999/xlink" x="0px" y="0px"
	 width="256px" height="338px" viewBox="0 0 256 338" enable-background="new 0 0 256 338" xml:space="preserve">
<rect x="2" fill="#EAE2D0" width="256" height="338"/>
<rect x="-54.5" y="247.5" fill="#E29D41" width="496.5" height="123.5"/>
<path fill="none" d="M0,104c0-10.226,45.845-18.5,102.5-18.5"/>
<rect x="-99.5" y="238" fill="#323333" width="496.5" height="20"/>
<g>
	
		<rect x="158.157" y="36.845" transform="matrix(0.6064 0.7952 -0.7952 0.6064 125.7486 -166.5658)" fill="#E29D41" width="145.927" height="13.779"/>
	
		<rect x="168.838" y="28.551" transform="matrix(0.6064 0.7952 -0.7952 0.6064 123.3592 -178.3247)" fill="#EAE2D0" width="145.928" height="13.778"/>
	
		<rect x="189.443" y="12.869" transform="matrix(0.6064 0.7952 -0.7952 0.6064 118.9979 -200.8817)" fill="#EAE2D0" width="145.929" height="13.778"/>
	
		<rect x="178.79" y="21.052" transform="matrix(0.6064 0.7952 -0.7952 0.6064 121.3138 -189.1912)" fill="#E29D41" width="145.929" height="13.777"/>
</g>
</svg>
