<?xml version="1.0" encoding="utf-8"?>
<!-- Generator: Adobe Illustrator 16.0.0, SVG Export Plug-In . SVG Version: 6.00 Build 0)  -->
<!DOCTYPE svg PUBLIC "-//W3C//DTD SVG 1.1//EN" "http://www.w3.org/Graphics/SVG/1.1/DTD/svg11.dtd">
<svg version="1.1" id="圖層_1" xmlns="http://www.w3.org/2000/svg" xmlns:xlink="http://www.w3.org/1999/xlink" x="0px" y="0px"
	 width="256px" height="338px" viewBox="0 0 256 338" enable-background="new 0 0 256 338" xml:space="preserve">
<g>
	
		<rect x="-95.011" y="166.088" transform="matrix(0.6064 0.7952 -0.7952 0.6064 189.1083 -36.079)" fill="#E29D41" width="452.017" height="13.779"/>
	
		<rect x="-84.482" y="157.595" transform="matrix(0.6064 0.7952 -0.7952 0.6064 186.4993 -47.7944)" fill="#FFFFFF" width="452.017" height="13.778"/>
	
		<rect x="-63.843" y="141.957" transform="matrix(0.6064 0.7952 -0.7952 0.6064 182.1879 -70.362)" fill="#FFFFFF" width="452.017" height="13.778"/>
	
		<rect x="-74.435" y="150.218" transform="matrix(0.6064 0.7952 -0.7952 0.6064 184.5879 -58.687)" fill="#E29D41" width="452.017" height="13.778"/>
</g>
<rect x="-139.198" y="197.484" transform="matrix(0.6064 0.7952 -0.7952 0.6064 196.6806 11.4143)" fill="#E29D41" width="452.018" height="13.779"/>
<rect x="-128.668" y="188.99" transform="matrix(0.6064 0.7952 -0.7952 0.6064 194.071 -0.3013)" fill="#FFFFFF" width="452.016" height="13.778"/>
<rect x="-112.983" y="181.613" transform="matrix(0.6064 0.7952 -0.7952 0.6064 194.379 -15.6777)" fill="#E29D41" width="452.017" height="13.778"/>
<g>
	
		<rect x="-179.513" y="230.622" transform="matrix(0.6064 0.7952 -0.7952 0.6064 207.1629 56.5156)" fill="#E29D41" width="452.017" height="13.779"/>
	
		<rect x="-168.984" y="222.129" transform="matrix(0.6064 0.7952 -0.7952 0.6064 204.5533 44.8)" fill="#FFFFFF" width="452.016" height="13.778"/>
	
		<rect x="-148.344" y="206.49" transform="matrix(0.6064 0.7952 -0.7952 0.6064 200.2418 22.2324)" fill="#FFFFFF" width="452.016" height="13.778"/>
	
		<rect x="-158.937" y="214.752" transform="matrix(0.6064 0.7952 -0.7952 0.6064 202.6418 33.9074)" fill="#E29D41" width="452.016" height="13.778"/>
</g>
<rect x="-220.955" y="262.181" transform="matrix(0.6064 0.7952 -0.7952 0.6064 215.9451 101.8904)" fill="#E29D41" width="452.018" height="13.779"/>
<rect x="-210.426" y="253.688" transform="matrix(0.6064 0.7952 -0.7952 0.6064 213.3356 90.1747)" fill="#FFFFFF" width="452.017" height="13.778"/>
<polygon fill="#FFFFFF" points="167.793,428.83 -106.304,69.4 -95.349,61.045 178.754,420.475 "/>
<rect x="-200.511" y="245.311" transform="matrix(0.6149 0.7886 -0.7886 0.6149 208.7034 77.0124)" fill="#E29D41" width="452.017" height="13.778"/>
<g>
	
		<rect x="-52.569" y="134.693" transform="matrix(0.6064 0.7952 -0.7952 0.6064 180.8492 -82.1849)" fill="#E29D41" width="452.017" height="13.779"/>
	<polygon fill="#FFFFFF" points="315.539,316.981 41.442,-42.448 52.397,-50.804 326.5,308.626 	"/>
	
		<rect x="-21.401" y="110.561" transform="matrix(0.6064 0.7952 -0.7952 0.6064 173.9287 -116.4683)" fill="#FFFFFF" width="452.018" height="13.778"/>
	<polygon fill="#E29D41" points="325.586,309.604 51.489,-49.826 62.444,-58.181 336.547,301.249 	"/>
</g>
<g>
	
		<rect x="52.51" y="102.134" transform="matrix(0.6064 0.7952 -0.7952 0.6064 196.3201 -178.5558)" fill="#E29D41" width="452.016" height="13.779"/>
	<polygon fill="#FFFFFF" points="420.618,284.424 146.521,-75.006 157.477,-83.362 431.579,276.068 	"/>
	
		<rect x="83.678" y="78.003" transform="matrix(0.6064 0.7952 -0.7952 0.6064 189.3999 -212.8388)" fill="#FFFFFF" width="452.018" height="13.778"/>
	<polygon fill="#E29D41" points="430.665,277.047 156.568,-82.384 167.523,-90.739 441.626,268.691 	"/>
</g>
<g>
	
		<rect x="-9.699" y="102.135" transform="matrix(0.6064 0.7952 -0.7952 0.6064 171.8347 -129.0888)" fill="#E29D41" width="452.016" height="13.779"/>
	<polygon fill="#FFFFFF" points="358.409,284.425 84.313,-75.005 95.268,-83.361 369.37,276.069 	"/>
	
		<rect x="21.469" y="78.004" transform="matrix(0.6064 0.7952 -0.7952 0.6064 164.9145 -163.3719)" fill="#FFFFFF" width="452.018" height="13.778"/>
	<polygon fill="#E29D41" points="368.456,277.048 94.359,-82.383 105.314,-90.738 379.417,268.692 	"/>
</g>
<g>
	
		<rect x="-266.142" y="294.29" transform="matrix(0.6064 0.7952 -0.7952 0.6064 223.6914 150.4603)" fill="#E29D41" width="452.018" height="13.779"/>
	
		<rect x="-255.612" y="285.797" transform="matrix(0.6064 0.7952 -0.7952 0.6064 221.082 138.7446)" fill="#FFFFFF" width="452.016" height="13.778"/>
	<polygon fill="#FFFFFF" points="122.606,460.939 -151.492,101.51 -140.537,93.154 133.566,452.584 	"/>
	
		<rect x="-245.566" y="278.42" transform="matrix(0.6064 0.7952 -0.7952 0.6064 219.1706 127.8521)" fill="#E29D41" width="452.017" height="13.778"/>
</g>
<rect x="-131.625" y="293.112" transform="matrix(0.7979 -0.6028 0.6028 0.7979 -189.282 35.4388)" fill="#E29D41" width="179.671" height="13.78"/>
<rect x="-139.895" y="282.411" transform="matrix(0.7979 -0.6028 0.6028 0.7979 -184.4998 28.2906)" fill="#FFFFFF" width="179.673" height="13.777"/>
<rect x="-155.478" y="261.731" transform="matrix(0.7979 -0.6028 0.6028 0.7979 -175.1847 14.7185)" fill="#FFFFFF" width="179.671" height="13.777"/>
<rect x="-147.335" y="272.412" transform="matrix(0.7979 -0.6028 0.6028 0.7979 -179.9775 21.7855)" fill="#E29D41" width="179.672" height="13.779"/>
<g>
	
		<rect x="40.207" y="-59.276" transform="matrix(0.7927 -0.6096 0.6096 0.7927 58.8913 68.4141)" fill="#E29D41" width="179.67" height="13.779"/>
</g>
<g>
	
		<rect x="72.801" y="-17.164" transform="matrix(0.7927 -0.6096 0.6096 0.7927 39.976 97.0126)" fill="#E29D41" width="179.67" height="13.779"/>
	
		<rect x="64.44" y="-27.794" transform="matrix(0.7927 -0.6096 0.6096 0.7927 44.7218 89.711)" fill="#FFFFFF" width="179.673" height="13.776"/>
	
		<rect x="48.68" y="-48.341" transform="matrix(0.7927 -0.6096 0.6096 0.7927 53.9813 75.846)" fill="#FFFFFF" width="179.672" height="13.777"/>
	
		<rect x="56.914" y="-37.729" transform="matrix(0.7927 -0.6096 0.6096 0.7927 49.2194 83.0658)" fill="#E29D41" width="179.672" height="13.778"/>
</g>
<g>
	
		<rect x="104.196" y="25.473" transform="matrix(0.7927 -0.6096 0.6096 0.7927 20.4921 124.9888)" fill="#E29D41" width="179.67" height="13.778"/>
	
		<rect x="95.835" y="14.843" transform="matrix(0.7927 -0.6096 0.6096 0.7927 25.2385 117.687)" fill="#FFFFFF" width="179.673" height="13.776"/>
	
		<rect x="80.076" y="-5.704" transform="matrix(0.7927 -0.6096 0.6096 0.7927 34.4978 103.8226)" fill="#FFFFFF" width="179.672" height="13.777"/>
	
		<rect x="88.309" y="4.908" transform="matrix(0.7927 -0.6096 0.6096 0.7927 29.7358 111.0426)" fill="#E29D41" width="179.672" height="13.778"/>
</g>
<g>
	
		<rect x="-100.223" y="333.098" transform="matrix(0.7888 -0.6146 0.6146 0.7888 -211.1655 65.4194)" fill="#E29D41" width="179.67" height="13.779"/>
	
		<rect x="-108.651" y="322.522" transform="matrix(0.7888 -0.6146 0.6146 0.7888 -206.4414 58.0039)" fill="#FFFFFF" width="179.673" height="13.777"/>
	
		<rect x="-124.542" y="302.076" transform="matrix(0.7888 -0.6146 0.6146 0.7888 -197.2328 43.9199)" fill="#FFFFFF" width="179.671" height="13.777"/>
	
		<rect x="-116.24" y="312.636" transform="matrix(0.7888 -0.6146 0.6146 0.7888 -201.9693 51.2521)" fill="#E29D41" width="179.672" height="13.779"/>
</g>
<g>
	
		<rect x="-67.454" y="375.473" transform="matrix(0.7888 -0.6146 0.6146 0.7888 -230.291 94.5105)" fill="#E29D41" width="179.67" height="13.779"/>
	
		<rect x="-75.882" y="364.897" transform="matrix(0.7888 -0.6146 0.6146 0.7888 -225.5656 87.0939)" fill="#FFFFFF" width="179.673" height="13.777"/>
	
		<rect x="-91.773" y="344.451" transform="matrix(0.7888 -0.6146 0.6146 0.7888 -216.3581 73.0107)" fill="#FFFFFF" width="179.671" height="13.777"/>
	
		<rect x="-83.471" y="355.011" transform="matrix(0.7888 -0.6146 0.6146 0.7888 -221.0946 80.3428)" fill="#E29D41" width="179.672" height="13.779"/>
</g>
<rect x="44.994" y="43.246" fill="#FFFFFF" width="170.096" height="55.508"/>
</svg>
